<svg width="195" height="195" viewBox="0 0 195 195" fill="none" xmlns="http://www.w3.org/2000/svg">
<path d="M0.999996 97.6155L49.3643 14L146.093 14L194.457 97.6155L146.093 181.231L49.3643 181.231L0.999996 97.6155Z" fill="#D714E0"/>
<path fill-rule="evenodd" clip-rule="evenodd" d="M94.835 96.8111L80.9691 120.827L53.2375 120.827L39.3717 96.8111L53.2375 72.7948L80.9691 72.7948L94.835 96.8111ZM76.0838 81.2564L58.1228 81.2564L49.1423 96.8111L58.1228 112.366L76.0838 112.366L85.0643 96.8111L76.0838 81.2564Z" fill="white"/>
<path d="M142.127 71.2853L138.463 64.9391H109.073L106.827 68.9023L109.376 73.4007H131.135L124.597 84.7245H106.636L97.6554 69.1699L106.636 53.6152L124.597 53.6152L126.249 56.4775H136.02L129.482 45.1536L101.751 45.1536L87.8848 69.1699L101.751 93.1861H129.482L142.127 71.2853Z" fill="white"/>
<path d="M129.986 132.173L124.597 141.506H106.636L97.6554 125.951L106.636 110.397L124.597 110.397L130.044 119.831H139.814L129.482 101.935L101.751 101.935L87.8848 125.951L101.751 149.968H129.482L139.756 132.173H129.986Z" fill="white"/>
</svg>
