<svg width="256" height="256" viewBox="0 0 24 24" fill="none" xmlns="http://www.w3.org/2000/svg">
<path d="M12 24C18.6274 24 24 18.6274 24 12C24 5.37258 18.6274 0 12 0C5.37258 0 0 5.37258 0 12C0 18.6274 5.37258 24 12 24Z" fill="#1B5AFE"/>
<path fill-rule="evenodd" clip-rule="evenodd" d="M5.90625 6.20117V10.2893C8.16417 10.2897 9.99451 8.45938 9.99451 6.20117H5.90625Z" fill="white"/>
<path fill-rule="evenodd" clip-rule="evenodd" d="M9.99414 18.4828V10.252C9.99414 10.2172 9.99414 10.1825 9.99548 10.1479C9.99632 10.1133 9.99763 10.0788 9.99942 10.0444C10.0012 10.0099 10.0034 9.97567 10.0059 9.94156C10.0086 9.90748 10.0117 9.8734 10.0155 9.83951C10.0194 9.80562 10.0228 9.77173 10.0272 9.73813C10.0315 9.70453 10.0363 9.67093 10.0414 9.63753C10.0465 9.60412 10.0521 9.57033 10.0581 9.53769C10.064 9.50453 10.0704 9.47151 10.0773 9.43861C10.0837 9.40578 10.0908 9.37308 10.0988 9.3405C10.1064 9.30799 10.1144 9.27557 10.1227 9.24325C10.131 9.21093 10.1397 9.17893 10.1489 9.14725C10.158 9.11525 10.1676 9.08345 10.1777 9.05183C10.1877 9.02015 10.198 8.98866 10.2086 8.95737C10.2192 8.92607 10.2302 8.89493 10.2416 8.86396C10.253 8.83298 10.2648 8.8022 10.277 8.77161C10.2891 8.74108 10.3015 8.71065 10.3144 8.68031C10.3272 8.65004 10.3404 8.61999 10.354 8.59017C10.3675 8.56034 10.3815 8.53065 10.3958 8.50108C10.41 8.47161 10.4246 8.44233 10.4396 8.41324C10.4546 8.38415 10.4698 8.35564 10.4855 8.32684C10.5011 8.29804 10.5171 8.26924 10.5335 8.2414C10.5499 8.21356 10.5664 8.18514 10.5834 8.1573C10.6004 8.12946 10.6177 8.10181 10.6352 8.07445C10.6528 8.04709 10.6707 8.01993 10.689 7.99295C10.7072 7.96594 10.7258 7.93922 10.7447 7.91279C10.7635 7.88636 10.7827 7.86012 10.8023 7.83407C10.8215 7.80802 10.8412 7.78242 10.8616 7.75727C10.8818 7.73167 10.9021 7.70639 10.9227 7.68143C10.9434 7.65647 10.9643 7.6317 10.9856 7.60713C11.0069 7.58261 11.0285 7.55836 11.0503 7.53436C11.0721 7.51036 11.0942 7.48661 11.1167 7.46313C11.1391 7.43964 11.1618 7.41644 11.1846 7.39353C11.2075 7.37055 11.2307 7.34789 11.2542 7.32556C11.2777 7.30309 11.3014 7.28098 11.3255 7.25922C11.3495 7.23746 11.3738 7.21593 11.3982 7.19461C11.4227 7.1733 11.4475 7.15234 11.4725 7.13173C11.4976 7.11106 11.5228 7.09071 11.5484 7.07068C11.5739 7.05064 11.5995 7.03084 11.6252 7.01125C11.6512 6.99205 11.6775 6.97285 11.7039 6.95365C11.7304 6.93445 11.7571 6.91621 11.7841 6.89807C11.811 6.87993 11.8381 6.86188 11.8656 6.84421C11.893 6.82655 11.9206 6.80937 11.9483 6.79237C11.9761 6.77538 12.0043 6.75877 12.0325 6.74255C12.0607 6.72633 12.0892 6.71029 12.1179 6.69455C12.1467 6.67881 12.1755 6.66364 12.2043 6.64866C12.2331 6.63369 12.2627 6.61909 12.2922 6.60479C12.3217 6.59049 12.3513 6.57666 12.3813 6.56303C12.4111 6.54946 12.4411 6.53628 12.4714 6.52348C12.5017 6.51068 12.5321 6.49817 12.5627 6.48594C12.5934 6.47385 12.6242 6.46207 12.6551 6.45061C12.686 6.43916 12.7171 6.42815 12.7486 6.41759C12.7799 6.40697 12.8114 6.39669 12.843 6.38677C12.8747 6.37685 12.9065 6.36725 12.9385 6.35797C12.9705 6.34882 13.0025 6.34009 13.0345 6.33177C13.0665 6.32345 13.0989 6.31548 13.1317 6.30786C13.1643 6.30031 13.1971 6.29314 13.2299 6.28636C13.2627 6.27957 13.2958 6.27317 13.329 6.26716C13.3621 6.26121 13.3954 6.25567 13.4288 6.25055C13.4622 6.24537 13.496 6.24095 13.5294 6.23634C13.5628 6.23173 13.5966 6.22809 13.6308 6.22463C13.665 6.22117 13.6988 6.2181 13.733 6.21503C13.7671 6.21196 13.8014 6.21023 13.8358 6.20841C13.8701 6.20658 13.9047 6.20533 13.9393 6.20447C13.9738 6.20361 14.0086 6.20312 14.0433 6.20312H18.095V10.2526H14.0438V18.4833L9.99414 18.4828Z" fill="white"/>
</svg>
