<svg width="256" height="256" viewBox="0 0 24 24" fill="none" xmlns="http://www.w3.org/2000/svg">
  <rect width="24" height="24" rx="12" fill="#26A17B"/>
  <path d="M11.4245 19.2008C11.3072 19.2008 11.2112 19.1634 11.1365 19.0888C11.0618 19.0141 11.0245 18.9181 11.0245 18.8008V17.6968C10.2138 17.6008 9.5365 17.4034 8.9925 17.1048C8.4485 16.7954 8.03783 16.4221 7.7605 15.9848C7.48317 15.5474 7.33383 15.0888 7.3125 14.6088C7.3125 14.5234 7.3445 14.4488 7.4085 14.3848C7.48317 14.3101 7.5685 14.2728 7.6645 14.2728H9.3765C9.51517 14.2728 9.62183 14.3048 9.6965 14.3688C9.77117 14.4221 9.8405 14.4914 9.9045 14.5768C9.97917 14.7581 10.0965 14.9341 10.2565 15.1048C10.4272 15.2754 10.6565 15.4194 10.9445 15.5368C11.2325 15.6434 11.5898 15.6968 12.0165 15.6968C12.7098 15.6968 13.2272 15.5848 13.5685 15.3608C13.9205 15.1368 14.0965 14.8328 14.0965 14.4488C14.0965 14.1714 14.0005 13.9474 13.8085 13.7768C13.6272 13.6061 13.3338 13.4514 12.9285 13.3128C12.5338 13.1741 12.0005 13.0248 11.3285 12.8648C10.5285 12.6941 9.85117 12.4754 9.2965 12.2088C8.74183 11.9314 8.3205 11.5794 8.0325 11.1528C7.75517 10.7154 7.6165 10.1768 7.6165 9.53678C7.6165 8.69411 7.91517 7.97945 8.5125 7.39278C9.1205 6.80611 9.95783 6.44345 11.0245 6.30478V5.20078C11.0245 5.08345 11.0618 4.98745 11.1365 4.91278C11.2112 4.83811 11.3072 4.80078 11.4245 4.80078H12.5605C12.6672 4.80078 12.7578 4.83811 12.8325 4.91278C12.9072 4.98745 12.9445 5.08345 12.9445 5.20078V6.33678C13.6805 6.45411 14.2938 6.67811 14.7845 7.00878C15.2858 7.32878 15.6645 7.69678 15.9205 8.11278C16.1872 8.51811 16.3258 8.91278 16.3365 9.29678C16.3365 9.38211 16.3045 9.46211 16.2405 9.53678C16.1765 9.60078 16.0965 9.63278 16.0005 9.63278H14.1925C14.0965 9.63278 14.0058 9.61145 13.9205 9.56878C13.8352 9.52611 13.7605 9.45145 13.6965 9.34478C13.6432 9.06745 13.4565 8.82745 13.1365 8.62478C12.8165 8.41145 12.4112 8.30478 11.9205 8.30478C11.3978 8.30478 10.9818 8.40078 10.6725 8.59278C10.3632 8.78478 10.2085 9.07811 10.2085 9.47278C10.2085 9.72878 10.2885 9.94745 10.4485 10.1288C10.6085 10.2994 10.8698 10.4541 11.2325 10.5928C11.5952 10.7208 12.0858 10.8648 12.7045 11.0248C13.6432 11.2168 14.4058 11.4461 14.9925 11.7128C15.5792 11.9794 16.0058 12.3261 16.2725 12.7528C16.5498 13.1688 16.6885 13.6968 16.6885 14.3368C16.6885 14.9554 16.5338 15.5048 16.2245 15.9848C15.9152 16.4541 15.4778 16.8328 14.9125 17.1208C14.3578 17.4088 13.7018 17.6008 12.9445 17.6968V18.8008C12.9445 18.9181 12.9072 19.0141 12.8325 19.0888C12.7578 19.1634 12.6672 19.2008 12.5605 19.2008H11.4245Z" fill="white"/>
</svg>
