<svg width="24" height="24" viewBox="0 0 24 24" fill="none" xmlns="http://www.w3.org/2000/svg">
<g clip-path="url(#clip0_283_60761)">
<g filter="url(#filter0_d_283_60761)">
<g filter="url(#filter1_d_283_60761)">
<path d="M11.8893 22.8923C17.9049 22.8923 22.7816 18.0156 22.7816 12C22.7816 5.98432 17.9049 1.10767 11.8893 1.10767C5.8736 1.10767 0.996948 5.98432 0.996948 12C0.996948 18.0156 5.8736 22.8923 11.8893 22.8923Z" fill="url(#paint0_linear_283_60761)"/>
</g>
<path d="M12 23.0769C18.1176 23.0769 23.0769 18.1176 23.0769 12C23.0769 5.8824 18.1176 0.923096 12 0.923096C5.8824 0.923096 0.923096 5.8824 0.923096 12C0.923096 18.1176 5.8824 23.0769 12 23.0769Z" stroke="#FFFCF5" stroke-width="0.923077"/>
<g filter="url(#filter2_d_283_60761)">
<path d="M11.994 4.35693L11.89 4.70528V14.8128L11.994 14.9151L16.7509 12.1418L11.994 4.35693Z" fill="#CFD9FF"/>
<path d="M11.994 4.35693L7.23694 12.1418L11.994 14.9151V10.0092V4.35693Z" fill="#FFFCF5"/>
<path d="M11.994 15.8034L11.9354 15.8738V19.4743L11.994 19.643L16.7539 13.0315L11.994 15.8034Z" fill="#CFD9FF"/>
<path d="M11.994 19.643V15.8034L7.23694 13.0315L11.994 19.643Z" fill="#FFFCF5"/>
<path d="M11.994 14.915L16.7509 12.1417L11.994 10.0092V14.915Z" fill="#9FB3FB"/>
<path d="M7.23694 12.1417L11.994 14.915V10.0092L7.23694 12.1417Z" fill="#CFD9FF"/>
</g>
</g>
</g>
<defs>
<filter id="filter0_d_283_60761" x="9.38773e-06" y="9.38773e-06" width="24" height="24" filterUnits="userSpaceOnUse" color-interpolation-filters="sRGB">
<feFlood flood-opacity="0" result="BackgroundImageFix"/>
<feColorMatrix in="SourceAlpha" type="matrix" values="0 0 0 0 0 0 0 0 0 0 0 0 0 0 0 0 0 0 127 0" result="hardAlpha"/>
<feOffset/>
<feGaussianBlur stdDeviation="0.230769"/>
<feComposite in2="hardAlpha" operator="out"/>
<feColorMatrix type="matrix" values="0 0 0 0 0.675749 0 0 0 0 0.384462 0 0 0 0 0.895833 0 0 0 1 0"/>
<feBlend mode="normal" in2="BackgroundImageFix" result="effect1_dropShadow_283_60761"/>
<feBlend mode="normal" in="SourceGraphic" in2="effect1_dropShadow_283_60761" result="shape"/>
</filter>
<filter id="filter1_d_283_60761" x="0.720025" y="0.830743" width="22.3385" height="22.3385" filterUnits="userSpaceOnUse" color-interpolation-filters="sRGB">
<feFlood flood-opacity="0" result="BackgroundImageFix"/>
<feColorMatrix in="SourceAlpha" type="matrix" values="0 0 0 0 0 0 0 0 0 0 0 0 0 0 0 0 0 0 127 0" result="hardAlpha"/>
<feOffset/>
<feGaussianBlur stdDeviation="0.138462"/>
<feComposite in2="hardAlpha" operator="out"/>
<feColorMatrix type="matrix" values="0 0 0 0 0 0 0 0 0 0 0 0 0 0 0 0 0 0 0.25 0"/>
<feBlend mode="normal" in2="BackgroundImageFix" result="effect1_dropShadow_283_60761"/>
<feBlend mode="normal" in="SourceGraphic" in2="effect1_dropShadow_283_60761" result="shape"/>
</filter>
<filter id="filter2_d_283_60761" x="7.23694" y="4.35693" width="9.97851" height="15.4707" filterUnits="userSpaceOnUse" color-interpolation-filters="sRGB">
<feFlood flood-opacity="0" result="BackgroundImageFix"/>
<feColorMatrix in="SourceAlpha" type="matrix" values="0 0 0 0 0 0 0 0 0 0 0 0 0 0 0 0 0 0 127 0" result="hardAlpha"/>
<feOffset dx="0.369231" dy="0.0923077"/>
<feGaussianBlur stdDeviation="0.0461538"/>
<feComposite in2="hardAlpha" operator="out"/>
<feColorMatrix type="matrix" values="0 0 0 0 0 0 0 0 0 0 0 0 0 0 0 0 0 0 0.25 0"/>
<feBlend mode="normal" in2="BackgroundImageFix" result="effect1_dropShadow_283_60761"/>
<feBlend mode="normal" in="SourceGraphic" in2="effect1_dropShadow_283_60761" result="shape"/>
</filter>
<linearGradient id="paint0_linear_283_60761" x1="1.36159" y1="45.8149" x2="23.6044" y2="45.568" gradientUnits="userSpaceOnUse">
<stop stop-color="#7A8FD9"/>
<stop offset="1" stop-color="#AC62E4"/>
</linearGradient>
<clipPath id="clip0_283_60761">
<rect width="24" height="24" fill="white"/>
</clipPath>
</defs>
</svg>
