<svg width="24" height="24" viewBox="0 0 24 24" fill="none" xmlns="http://www.w3.org/2000/svg">
<g clip-path="url(#clip0_130_13707)">
<g clip-path="url(#clip1_130_13707)">
<path d="M16.5 24C15.4877 24 14.5055 23.8016 13.5805 23.4105C12.6873 23.0327 11.8856 22.4919 11.1966 21.8034C10.5081 21.1149 9.96733 20.3127 9.5895 19.4195C9.19844 18.4945 9 17.5123 9 16.5C9 15.4877 9.19844 14.5055 9.5895 13.5805C9.96733 12.6873 10.5081 11.8856 11.1966 11.1966C11.8856 10.5081 12.6873 9.96733 13.5805 9.5895C14.5055 9.19844 15.4877 9 16.5 9C17.5123 9 18.4945 9.19844 19.4195 9.5895C20.3127 9.96733 21.1144 10.5081 21.8034 11.1966C22.4919 11.8851 23.0327 12.6873 23.4105 13.5805C23.8016 14.5055 24 15.4877 24 16.5C24 17.5123 23.8016 18.4945 23.4105 19.4195C23.0327 20.3127 22.4919 21.1144 21.8034 21.8034C21.1149 22.4919 20.3127 23.0327 19.4195 23.4105C18.4945 23.8021 17.5123 24 16.5 24Z" fill="white"/>
<path d="M16.5001 23.6026C20.4227 23.6026 23.6026 20.4227 23.6026 16.5001C23.6026 12.5774 20.4227 9.39746 16.5001 9.39746C12.5774 9.39746 9.39746 12.5774 9.39746 16.5001C9.39746 20.4227 12.5774 23.6026 16.5001 23.6026Z" fill="black"/>
<path d="M20.2413 16.4999C20.2413 15.7389 20.0127 15.0309 19.6211 14.4393L20.7826 13.2778L19.738 12.2332L18.5797 13.3915C17.9849 12.992 17.2694 12.7586 16.5006 12.7586C15.7396 12.7586 15.0316 12.9872 14.4399 13.3788L13.2779 12.2173L12.2333 13.2619L13.3916 14.4202C12.9921 15.015 12.7588 15.7305 12.7588 16.4994C12.7588 17.2603 12.9874 17.9684 13.3789 18.56L12.2174 19.722L13.262 20.7666L14.4204 19.6083C15.0152 20.0078 15.7306 20.2412 16.4995 20.2412C17.2604 20.2412 17.9685 20.0126 18.5601 19.621L19.7222 20.783L20.7668 19.7385L19.6084 18.5801C20.0079 17.9842 20.2413 17.2688 20.2413 16.4999ZM14.2367 16.4999C14.2367 15.2516 15.2522 14.2361 16.5006 14.2361C17.7489 14.2361 18.7644 15.2516 18.7644 16.4999C18.7644 17.7482 17.7489 18.7637 16.5006 18.7637C15.2522 18.7637 14.2367 17.7482 14.2367 16.4999Z" fill="white"/>
</g>
<g clip-path="url(#clip2_130_13707)">
<g filter="url(#filter0_d_130_13707)">
<g filter="url(#filter1_d_130_13707)">
<path d="M7.43196 14.3078C11.1917 14.3078 14.2397 11.2599 14.2397 7.50007C14.2397 3.74029 11.1917 0.692383 7.43196 0.692383C3.67218 0.692383 0.624268 3.74029 0.624268 7.50007C0.624268 11.2599 3.67218 14.3078 7.43196 14.3078Z" fill="url(#paint0_linear_130_13707)"/>
</g>
<path d="M7.50071 14.4231C11.3242 14.4231 14.4238 11.3235 14.4238 7.49998C14.4238 3.67647 11.3242 0.576904 7.50071 0.576904C3.6772 0.576904 0.577637 3.67647 0.577637 7.49998C0.577637 11.3235 3.6772 14.4231 7.50071 14.4231Z" stroke="#FFFCF5" stroke-width="0.923077"/>
<g filter="url(#filter2_d_130_13707)">
<path d="M7.42634 4.86081C7.15247 4.85739 6.89574 4.90188 6.65615 4.99431C6.41996 5.08331 6.22657 5.20654 6.07594 5.364C5.9253 5.52146 5.85001 5.7046 5.85001 5.9134C5.85001 6.17013 5.92017 6.36525 6.06053 6.49875C6.2009 6.63225 6.38915 6.73154 6.62534 6.79656C6.86494 6.85817 7.13194 6.91465 7.42634 6.966C7.89872 7.04129 8.33517 7.16625 8.73567 7.34083C9.13957 7.5154 9.46305 7.74819 9.70611 8.03913C9.95257 8.32667 10.0758 8.68096 10.0758 9.102C10.0758 9.48883 9.97311 9.83285 9.76772 10.1341C9.56234 10.4319 9.2868 10.6732 8.94105 10.858C8.59876 11.0395 8.22047 11.1541 7.8063 11.2021V12.2444H7.05151V11.2021C6.70576 11.1678 6.37715 11.0857 6.06567 10.9556C5.75759 10.8255 5.48888 10.6527 5.25953 10.437C5.03019 10.2213 4.86417 9.97148 4.76147 9.68735L5.76272 9.31252C5.82094 9.47683 5.93217 9.624 6.09647 9.7541C6.26419 9.88073 6.46276 9.98002 6.69209 10.0519C6.92488 10.1238 7.16961 10.1597 7.42634 10.1597C7.70021 10.1597 7.95694 10.1152 8.19653 10.0262C8.43959 9.93721 8.6347 9.81398 8.78188 9.65654C8.93251 9.4991 9.0078 9.31425 9.0078 9.102C9.0078 8.88294 8.92905 8.70323 8.77161 8.56286C8.61757 8.4225 8.41905 8.31127 8.17599 8.22911C7.9364 8.14696 7.68647 8.08535 7.42634 8.04427C6.92315 7.96211 6.4713 7.84229 6.0708 7.68485C5.67372 7.5274 5.3588 7.30661 5.12603 7.02248C4.89669 6.73835 4.78201 6.36865 4.78201 5.9134C4.78201 5.52659 4.88471 5.18257 5.09009 4.88135C5.29547 4.58012 5.56932 4.33879 5.91163 4.15736C6.25738 3.97252 6.63734 3.85784 7.05151 3.81335V2.75562H7.8063V3.81335C8.14178 3.84757 8.46353 3.92973 8.77161 4.05981C9.08309 4.18989 9.35522 4.36275 9.58801 4.5784C9.8208 4.79064 9.99024 5.04394 10.0963 5.33833L9.08482 5.70288C9.02661 5.53516 8.91538 5.38967 8.75107 5.26644C8.58676 5.13979 8.38824 5.04052 8.15546 4.96863C7.92613 4.89675 7.68307 4.86081 7.42634 4.86081Z" fill="#FFFCF5"/>
</g>
</g>
</g>
</g>
<defs>
<filter id="filter0_d_130_13707" x="-0.34545" y="-0.34606" width="15.6924" height="15.6921" filterUnits="userSpaceOnUse" color-interpolation-filters="sRGB">
<feFlood flood-opacity="0" result="BackgroundImageFix"/>
<feColorMatrix in="SourceAlpha" type="matrix" values="0 0 0 0 0 0 0 0 0 0 0 0 0 0 0 0 0 0 127 0" result="hardAlpha"/>
<feOffset/>
<feGaussianBlur stdDeviation="0.230769"/>
<feComposite in2="hardAlpha" operator="out"/>
<feColorMatrix type="matrix" values="0 0 0 0 0.675749 0 0 0 0 0.384462 0 0 0 0 0.895833 0 0 0 1 0"/>
<feBlend mode="normal" in2="BackgroundImageFix" result="effect1_dropShadow_130_13707"/>
<feBlend mode="normal" in="SourceGraphic" in2="effect1_dropShadow_130_13707" result="shape"/>
</filter>
<filter id="filter1_d_130_13707" x="0.347344" y="0.41546" width="14.1692" height="14.1693" filterUnits="userSpaceOnUse" color-interpolation-filters="sRGB">
<feFlood flood-opacity="0" result="BackgroundImageFix"/>
<feColorMatrix in="SourceAlpha" type="matrix" values="0 0 0 0 0 0 0 0 0 0 0 0 0 0 0 0 0 0 127 0" result="hardAlpha"/>
<feOffset/>
<feGaussianBlur stdDeviation="0.138462"/>
<feComposite in2="hardAlpha" operator="out"/>
<feColorMatrix type="matrix" values="0 0 0 0 0 0 0 0 0 0 0 0 0 0 0 0 0 0 0.25 0"/>
<feBlend mode="normal" in2="BackgroundImageFix" result="effect1_dropShadow_130_13707"/>
<feBlend mode="normal" in="SourceGraphic" in2="effect1_dropShadow_130_13707" result="shape"/>
</filter>
<filter id="filter2_d_130_13707" x="4.76147" y="2.75562" width="5.79638" height="9.67338" filterUnits="userSpaceOnUse" color-interpolation-filters="sRGB">
<feFlood flood-opacity="0" result="BackgroundImageFix"/>
<feColorMatrix in="SourceAlpha" type="matrix" values="0 0 0 0 0 0 0 0 0 0 0 0 0 0 0 0 0 0 127 0" result="hardAlpha"/>
<feOffset dx="0.369231" dy="0.0923077"/>
<feGaussianBlur stdDeviation="0.0461538"/>
<feComposite in2="hardAlpha" operator="out"/>
<feColorMatrix type="matrix" values="0 0 0 0 0 0 0 0 0 0 0 0 0 0 0 0 0 0 0.25 0"/>
<feBlend mode="normal" in2="BackgroundImageFix" result="effect1_dropShadow_130_13707"/>
<feBlend mode="normal" in="SourceGraphic" in2="effect1_dropShadow_130_13707" result="shape"/>
</filter>
<linearGradient id="paint0_linear_130_13707" x1="0.852169" y1="28.6344" x2="14.7539" y2="28.4801" gradientUnits="userSpaceOnUse">
<stop stop-color="#7A8FD9"/>
<stop offset="1" stop-color="#AC62E4"/>
</linearGradient>
<clipPath id="clip0_130_13707">
<rect width="24" height="24" fill="white"/>
</clipPath>
<clipPath id="clip1_130_13707">
<rect width="15" height="15" fill="white" transform="translate(9 9)"/>
</clipPath>
<clipPath id="clip2_130_13707">
<rect width="15" height="15" fill="white"/>
</clipPath>
</defs>
</svg>
